<?xml version="1.0" encoding="UTF-8" standalone="no"?>
<!DOCTYPE svg PUBLIC "-//W3C//DTD SVG 1.1//EN"
 "http://www.w3.org/Graphics/SVG/1.1/DTD/svg11.dtd">
<!-- Generated by graphviz version 2.44.0 (20200518.1210)
 -->
<!-- Title: ebnf Pages: 1 -->
<svg width="502pt" height="488pt"
 viewBox="0.00 0.00 502.36 488.00" xmlns="http://www.w3.org/2000/svg" xmlns:xlink="http://www.w3.org/1999/xlink">
<g id="graph0" class="graph" transform="scale(1 1) rotate(0) translate(4 484)">
<title>ebnf</title>
<polygon fill="white" stroke="transparent" points="-4,4 -4,-484 498.36,-484 498.36,4 -4,4"/>
<!-- Grammar -->
<g id="node1" class="node">
<title>Grammar</title>
<ellipse fill="none" stroke="black" cx="270.82" cy="-462" rx="48.07" ry="18"/>
<text text-anchor="middle" x="270.82" y="-457.8" font-family="Times,serif" font-size="14.00">Grammar</text>
</g>
<!-- Production -->
<g id="node2" class="node">
<title>Production</title>
<ellipse fill="none" stroke="black" cx="270.82" cy="-373.2" rx="53.33" ry="18"/>
<text text-anchor="middle" x="270.82" y="-369" font-family="Times,serif" font-size="14.00">Production</text>
</g>
<!-- Grammar&#45;&gt;Production -->
<g id="edge1" class="edge">
<title>Grammar&#45;&gt;Production</title>
<path fill="none" stroke="black" d="M270.82,-443.85C270.82,-431.72 270.82,-415.22 270.82,-401.32"/>
<polygon fill="black" stroke="black" points="274.32,-401.31 270.82,-391.31 267.32,-401.31 274.32,-401.31"/>
<text text-anchor="middle" x="297.25" y="-413.4" font-family="Times,serif" font-size="14.00">NCName</text>
</g>
<!-- ::= -->
<g id="node3" class="node">
<title>::=</title>
<ellipse fill="none" stroke="black" cx="270.82" cy="-284.4" rx="27" ry="18"/>
<text text-anchor="middle" x="270.82" y="-280.2" font-family="Times,serif" font-size="14.00">::=</text>
</g>
<!-- Production&#45;&gt;::= -->
<g id="edge2" class="edge">
<title>Production&#45;&gt;::=</title>
<path fill="none" stroke="black" d="M270.82,-355.05C270.82,-342.92 270.82,-326.42 270.82,-312.52"/>
<polygon fill="black" stroke="black" points="274.32,-312.51 270.82,-302.51 267.32,-312.51 274.32,-312.51"/>
<text text-anchor="middle" x="278.65" y="-324.6" font-family="Times,serif" font-size="14.00">::=</text>
</g>
<!-- NCName -->
<g id="node4" class="node">
<title>NCName</title>
<ellipse fill="none" stroke="black" cx="83.82" cy="-195.6" rx="47.51" ry="18"/>
<text text-anchor="middle" x="83.82" y="-191.4" font-family="Times,serif" font-size="14.00">NCName</text>
</g>
<!-- ::=&#45;&gt;NCName -->
<g id="edge3" class="edge">
<title>::=&#45;&gt;NCName</title>
<path fill="none" stroke="black" d="M247.22,-275.08C228.91,-268.42 203.01,-258.54 180.95,-248.4 159.55,-238.57 136.26,-226.21 117.85,-216.02"/>
<polygon fill="black" stroke="black" points="119.4,-212.88 108.96,-211.07 115.99,-219 119.4,-212.88"/>
<text text-anchor="middle" x="208.25" y="-235.8" font-family="Times,serif" font-size="14.00">NCName</text>
</g>
<!-- StringLiteral -->
<g id="node5" class="node">
<title>StringLiteral</title>
<ellipse fill="none" stroke="black" cx="115.82" cy="-18" rx="60.27" ry="18"/>
<text text-anchor="middle" x="115.82" y="-13.8" font-family="Times,serif" font-size="14.00">StringLiteral</text>
</g>
<!-- ::=&#45;&gt;StringLiteral -->
<g id="edge4" class="edge">
<title>::=&#45;&gt;StringLiteral</title>
<path fill="none" stroke="black" d="M290.71,-271.98C341.16,-241.6 466.45,-156.5 412.82,-88.8 384.72,-53.34 261.87,-34.12 183.24,-25.26"/>
<polygon fill="black" stroke="black" points="183.25,-21.74 172.92,-24.13 182.48,-28.7 183.25,-21.74"/>
<text text-anchor="middle" x="458.59" y="-147" font-family="Times,serif" font-size="14.00">StringLiteral</text>
</g>
<!-- CharClass -->
<g id="node6" class="node">
<title>CharClass</title>
<ellipse fill="none" stroke="black" cx="196.82" cy="-106.8" rx="50.96" ry="18"/>
<text text-anchor="middle" x="196.82" y="-102.6" font-family="Times,serif" font-size="14.00">CharClass</text>
</g>
<!-- ::=&#45;&gt;CharClass -->
<g id="edge5" class="edge">
<title>::=&#45;&gt;CharClass</title>
<path fill="none" stroke="black" d="M280.05,-267.48C291.19,-245.99 306.7,-207.01 291.82,-177.6 280.22,-154.69 257.18,-137.48 236.7,-125.87"/>
<polygon fill="black" stroke="black" points="238.28,-122.75 227.81,-121.09 234.96,-128.91 238.28,-122.75"/>
<text text-anchor="middle" x="326.59" y="-191.4" font-family="Times,serif" font-size="14.00">CharClass</text>
</g>
<!-- NCName&#45;&gt;::= -->
<g id="edge12" class="edge">
<title>NCName&#45;&gt;::=</title>
<path fill="none" stroke="black" d="M130.5,-198.97C161.96,-202.51 203.15,-211.07 233.82,-231.6 243.7,-238.22 251.81,-248.42 257.9,-258.03"/>
<polygon fill="black" stroke="black" points="255.03,-260.06 263.1,-266.93 261.07,-256.53 255.03,-260.06"/>
<text text-anchor="middle" x="258.65" y="-235.8" font-family="Times,serif" font-size="14.00">::=</text>
</g>
<!-- NCName&#45;&gt;NCName -->
<g id="edge6" class="edge">
<title>NCName&#45;&gt;NCName</title>
<path fill="none" stroke="black" d="M131.22,-197.61C141.69,-197.42 149.32,-196.75 149.32,-195.6 149.32,-194.88 146.34,-194.35 141.55,-194.01"/>
<polygon fill="black" stroke="black" points="141.35,-190.5 131.22,-193.59 141.07,-197.49 141.35,-190.5"/>
<text text-anchor="middle" x="152.43" y="-191.4" font-family="Times,serif" font-size="14.00">?</text>
</g>
<!-- NCName&#45;&gt;NCName -->
<g id="edge7" class="edge">
<title>NCName&#45;&gt;NCName</title>
<path fill="none" stroke="black" d="M130.19,-199.68C150.19,-200.01 167.32,-198.65 167.32,-195.6 167.32,-193.1 155.8,-191.73 140.61,-191.51"/>
<polygon fill="black" stroke="black" points="140.18,-188.01 130.19,-191.52 140.19,-195.01 140.18,-188.01"/>
<text text-anchor="middle" x="174.32" y="-191.4" font-family="Times,serif" font-size="14.00">**</text>
</g>
<!-- NCName&#45;&gt;NCName -->
<g id="edge8" class="edge">
<title>NCName&#45;&gt;NCName</title>
<path fill="none" stroke="black" d="M128.96,-201.31C157.72,-202.77 185.32,-200.87 185.32,-195.6 185.32,-190.95 163.81,-188.92 138.98,-189.51"/>
<polygon fill="black" stroke="black" points="138.82,-186.02 128.96,-189.89 139.08,-193.01 138.82,-186.02"/>
<text text-anchor="middle" x="189.27" y="-191.4" font-family="Times,serif" font-size="14.00">+</text>
</g>
<!-- NCName&#45;&gt;NCName -->
<g id="edge9" class="edge">
<title>NCName&#45;&gt;NCName</title>
<path fill="none" stroke="black" d="M127.63,-202.57C164.59,-205.59 203.32,-203.27 203.32,-195.6 203.32,-188.65 171.51,-186.09 138.04,-187.92"/>
<polygon fill="black" stroke="black" points="137.37,-184.46 127.63,-188.63 137.85,-191.45 137.37,-184.46"/>
<text text-anchor="middle" x="229.76" y="-191.4" font-family="Times,serif" font-size="14.00">NCName</text>
</g>
<!-- NCName&#45;&gt;StringLiteral -->
<g id="edge10" class="edge">
<title>NCName&#45;&gt;StringLiteral</title>
<path fill="none" stroke="black" d="M75.95,-177.76C67.16,-156.58 55.39,-119.31 65.28,-88.8 70.76,-71.87 82.06,-55.61 92.59,-43.04"/>
<polygon fill="black" stroke="black" points="95.37,-45.18 99.32,-35.35 90.1,-40.57 95.37,-45.18"/>
<text text-anchor="middle" x="101.59" y="-102.6" font-family="Times,serif" font-size="14.00">StringLiteral</text>
</g>
<!-- NCName&#45;&gt;CharClass -->
<g id="edge11" class="edge">
<title>NCName&#45;&gt;CharClass</title>
<path fill="none" stroke="black" d="M90.95,-177.31C96.27,-166.22 104.47,-152.18 115.27,-142.8 125,-134.35 137.08,-127.69 148.93,-122.54"/>
<polygon fill="black" stroke="black" points="150.38,-125.73 158.34,-118.74 147.75,-119.24 150.38,-125.73"/>
<text text-anchor="middle" x="144.59" y="-147" font-family="Times,serif" font-size="14.00">CharClass</text>
</g>
<!-- StringLiteral&#45;&gt;NCName -->
<g id="edge16" class="edge">
<title>StringLiteral&#45;&gt;NCName</title>
<path fill="none" stroke="black" d="M77.36,-31.95C51.83,-42.79 20.28,-61.02 4.95,-88.8 -12.69,-120.75 22.15,-153.89 51,-174.38"/>
<polygon fill="black" stroke="black" points="49.08,-177.31 59.31,-180.07 53.03,-171.53 49.08,-177.31"/>
<text text-anchor="middle" x="32.25" y="-102.6" font-family="Times,serif" font-size="14.00">NCName</text>
</g>
<!-- StringLiteral&#45;&gt;StringLiteral -->
<g id="edge13" class="edge">
<title>StringLiteral&#45;&gt;StringLiteral</title>
<path fill="none" stroke="black" d="M175.96,-19.94C186.7,-19.69 194.2,-19.04 194.2,-18 194.2,-17.33 191.12,-16.83 186.08,-16.48"/>
<polygon fill="black" stroke="black" points="186.09,-12.98 175.96,-16.06 185.8,-19.97 186.09,-12.98"/>
<text text-anchor="middle" x="197.31" y="-13.8" font-family="Times,serif" font-size="14.00">?</text>
</g>
<!-- StringLiteral&#45;&gt;StringLiteral -->
<g id="edge14" class="edge">
<title>StringLiteral&#45;&gt;StringLiteral</title>
<path fill="none" stroke="black" d="M174.64,-22.12C195.37,-22.19 212.2,-20.81 212.2,-18 212.2,-15.67 200.66,-14.33 184.92,-13.97"/>
<polygon fill="black" stroke="black" points="184.67,-10.47 174.64,-13.88 184.61,-17.47 184.67,-10.47"/>
<text text-anchor="middle" x="219.2" y="-13.8" font-family="Times,serif" font-size="14.00">**</text>
</g>
<!-- StringLiteral&#45;&gt;StringLiteral -->
<g id="edge15" class="edge">
<title>StringLiteral&#45;&gt;StringLiteral</title>
<path fill="none" stroke="black" d="M172.9,-23.95C202.96,-24.91 230.2,-22.93 230.2,-18 230.2,-13.63 208.78,-11.57 182.97,-11.83"/>
<polygon fill="black" stroke="black" points="182.83,-8.34 172.9,-12.05 182.98,-15.34 182.83,-8.34"/>
<text text-anchor="middle" x="234.15" y="-13.8" font-family="Times,serif" font-size="14.00">+</text>
</g>
<!-- StringLiteral&#45;&gt;StringLiteral -->
<g id="edge17" class="edge">
<title>StringLiteral&#45;&gt;StringLiteral</title>
<path fill="none" stroke="black" d="M170.9,-25.4C209.74,-27.73 248.2,-25.26 248.2,-18 248.2,-11.39 216.34,-8.75 181.33,-10.09"/>
<polygon fill="black" stroke="black" points="180.72,-6.61 170.9,-10.6 181.06,-13.6 180.72,-6.61"/>
<text text-anchor="middle" x="283.97" y="-13.8" font-family="Times,serif" font-size="14.00">StringLiteral</text>
</g>
<!-- StringLiteral&#45;&gt;CharClass -->
<g id="edge18" class="edge">
<title>StringLiteral&#45;&gt;CharClass</title>
<path fill="none" stroke="black" d="M111.91,-36.27C110.46,-47.07 110.54,-60.8 117.27,-70.8 123.98,-80.78 134.23,-87.93 145.15,-93.06"/>
<polygon fill="black" stroke="black" points="143.84,-96.31 154.42,-96.9 146.52,-89.84 143.84,-96.31"/>
<text text-anchor="middle" x="146.59" y="-58.2" font-family="Times,serif" font-size="14.00">CharClass</text>
</g>
<!-- CharClass&#45;&gt;NCName -->
<g id="edge22" class="edge">
<title>CharClass&#45;&gt;NCName</title>
<path fill="none" stroke="black" d="M192.41,-125.18C188.79,-136.31 182.63,-150.35 172.82,-159.6 161.92,-169.87 147.65,-177.25 133.75,-182.5"/>
<polygon fill="black" stroke="black" points="132.52,-179.22 124.22,-185.8 134.82,-185.83 132.52,-179.22"/>
<text text-anchor="middle" x="211.25" y="-147" font-family="Times,serif" font-size="14.00">NCName</text>
</g>
<!-- CharClass&#45;&gt;StringLiteral -->
<g id="edge23" class="edge">
<title>CharClass&#45;&gt;StringLiteral</title>
<path fill="none" stroke="black" d="M192.46,-88.43C189.06,-77.59 183.44,-63.86 174.82,-54 169.8,-48.27 163.62,-43.22 157.15,-38.86"/>
<polygon fill="black" stroke="black" points="158.59,-35.64 148.25,-33.36 154.91,-41.59 158.59,-35.64"/>
<text text-anchor="middle" x="221.59" y="-58.2" font-family="Times,serif" font-size="14.00">StringLiteral</text>
</g>
<!-- CharClass&#45;&gt;CharClass -->
<g id="edge19" class="edge">
<title>CharClass&#45;&gt;CharClass</title>
<path fill="none" stroke="black" d="M247.47,-108.79C257.98,-108.58 265.55,-107.92 265.55,-106.8 265.55,-106.1 262.59,-105.58 257.81,-105.24"/>
<polygon fill="black" stroke="black" points="257.6,-101.73 247.47,-104.81 257.31,-108.72 257.6,-101.73"/>
<text text-anchor="middle" x="268.65" y="-102.6" font-family="Times,serif" font-size="14.00">?</text>
</g>
<!-- CharClass&#45;&gt;CharClass -->
<g id="edge20" class="edge">
<title>CharClass&#45;&gt;CharClass</title>
<path fill="none" stroke="black" d="M246.29,-110.89C266.5,-111.15 283.55,-109.79 283.55,-106.8 283.55,-104.33 271.86,-102.97 256.36,-102.72"/>
<polygon fill="black" stroke="black" points="256.29,-99.22 246.29,-102.71 256.29,-106.22 256.29,-99.22"/>
<text text-anchor="middle" x="290.55" y="-102.6" font-family="Times,serif" font-size="14.00">**</text>
</g>
<!-- CharClass&#45;&gt;CharClass -->
<g id="edge21" class="edge">
<title>CharClass&#45;&gt;CharClass</title>
<path fill="none" stroke="black" d="M245.02,-112.59C274.1,-113.9 301.55,-111.97 301.55,-106.8 301.55,-102.23 280.16,-100.19 255.14,-100.68"/>
<polygon fill="black" stroke="black" points="254.9,-97.19 245.02,-101.01 255.13,-104.19 254.9,-97.19"/>
<text text-anchor="middle" x="305.49" y="-102.6" font-family="Times,serif" font-size="14.00">+</text>
</g>
<!-- CharClass&#45;&gt;CharClass -->
<g id="edge24" class="edge">
<title>CharClass&#45;&gt;CharClass</title>
<path fill="none" stroke="black" d="M243.73,-113.91C281.09,-116.71 319.55,-114.34 319.55,-106.8 319.55,-99.94 287.69,-97.36 253.8,-99.06"/>
<polygon fill="black" stroke="black" points="253.49,-95.57 243.73,-99.69 253.93,-102.56 253.49,-95.57"/>
<text text-anchor="middle" x="348.32" y="-102.6" font-family="Times,serif" font-size="14.00">CharClass</text>
</g>
</g>
</svg>
